<svg xmlns="http://www.w3.org/2000/svg" viewBox="0 0 100 100">
  <!-- Stickman Body Clothes (Shirt) -->
  <path d="M30,52 L40,52 L42,85 L28,85 Z" fill="#3b82f6" fill-opacity="0.3" stroke="#3b82f6" stroke-width="0.5" stroke-opacity="0.5" />
  <!-- Pants -->
  <path d="M28,85 L42,85 L45,98 L35,85 L25,98 Z" fill="#64748b" fill-opacity="0.3" stroke="#64748b" stroke-width="0.5" stroke-opacity="0.5" />
  <!-- Stickman -->
  <circle cx="35" cy="40" r="12" fill="none" stroke="white" stroke-width="3"/>
  <line x1="35" y1="52" x2="35" y2="85" stroke="white" stroke-width="3" stroke-linecap="round"/>
  <!-- Arms -->
  <path d="M35 60 L60 50" stroke="white" stroke-width="3" stroke-linecap="round" fill="none"/>
  <path d="M35 60 L10 70" stroke="white" stroke-width="3" stroke-linecap="round" fill="none"/>
  <!-- Legs -->
  <path d="M35 85 L25 98" stroke="white" stroke-width="3" stroke-linecap="round" fill="none"/>
  <path d="M35 85 L45 98" stroke="white" stroke-width="3" stroke-linecap="round" fill="none"/>
  
  <!-- Heart held aloft by hand -->
  <path d="M75 35 C75 28 65 28 62 35 C59 28 49 28 49 35 C49 45 62 55 62 55 C62 55 75 45 75 35" fill="#2dd4bf">
    <animate attributeName="opacity" values="0.6;1;0.6" dur="2s" repeatCount="indefinite" />
  </path>
  
  <!-- Smile -->
  <path d="M30 42 Q35 47 40 42" fill="none" stroke="white" stroke-width="2" stroke-linecap="round"/>
  
  <!-- Sparkles -->
  <circle cx="85" cy="20" r="2" fill="#ffd700">
     <animate attributeName="r" values="1;3;1" dur="1.5s" repeatCount="indefinite" />
  </circle>
  <circle cx="75" cy="10" r="1.5" fill="#ffd700">
     <animate attributeName="r" values="0.5;2;0.5" dur="1.2s" repeatCount="indefinite" />
  </circle>
</svg>
