<svg width="100" height="100" viewBox="0 0 100 100" fill="none" xmlns="http://www.w3.org/2000/svg">
  <!-- Body -->
  <circle cx="50" cy="25" r="12" stroke="black" stroke-width="6"/>
  <path d="M50 37V65" stroke="black" stroke-width="6" stroke-linecap="round"/>
  <!-- Legs -->
  <path d="M50 65L35 85" stroke="black" stroke-width="6" stroke-linecap="round"/>
  <path d="M50 65L65 85" stroke="black" stroke-width="6" stroke-linecap="round"/>
  <!-- Arms -->
  <path d="M50 45L30 55" stroke="black" stroke-width="6" stroke-linecap="round"/>
  <path d="M50 45L70 40" stroke="black" stroke-width="6" stroke-linecap="round"/>
  <!-- Shield -->
  <path d="M70 25C70 25 70 45 85 45C100 45 100 25 100 25L85 10L70 25Z" fill="#6366F1"/>
  <path d="M65 30Q80 50 95 30L80 15Z" fill="#4F46E5"/>
  <!-- Simplified Shield -->
  <path d="M70 30L85 55L100 30L85 15L70 30Z" fill="#4F46E5" stroke="white" stroke-width="2"/>
</svg>
